<?xml version="1.0" standalone="no"?>
<!DOCTYPE svg PUBLIC "-//W3C//DTD SVG 20010904//EN"
 "http://www.w3.org/TR/2001/REC-SVG-20010904/DTD/svg10.dtd">
<svg version="1.0" xmlns="http://www.w3.org/2000/svg"
 width="700.000000pt" height="700.000000pt" viewBox="0 0 700.000000 700.000000"
 preserveAspectRatio="xMidYMid meet">
<metadata>
Created by potrace 1.14, written by Peter Selinger 2001-2017
</metadata>
<g transform="translate(0.000000,700.000000) scale(0.100000,-0.100000)"
fill="#000000" stroke="none">
<path d="M0 3500 l0 -3500 3500 0 3500 0 0 3500 0 3500 -3500 0 -3500 0 0
-3500z m3111 765 c208 -361 379 -661 379 -666 0 -6 -309 -545 -687 -1199
l-687 -1190 -773 0 -772 0 33 58 c19 31 496 858 1061 1837 1116 1935 1054
1829 1062 1822 2 -3 175 -301 384 -662z m2239 -1185 c579 -1004 1060 -1835
1068 -1847 l14 -23 -774 0 -774 0 -688 1191 c-378 655 -686 1196 -684 1203 2
7 174 308 382 670 299 517 382 654 392 644 6 -7 485 -834 1064 -1838z"/>
</g>
</svg>
