<?xml version="1.0" encoding="UTF-8" standalone="no"?>
<!-- Created with Inkscape (http://www.inkscape.org/) -->

<svg
   version="1.1"
   id="svg2"
   xml:space="preserve"
   width="512"
   height="512"
   viewBox="0 0 511.99999 512"
   sodipodi:docname="logo.svg"
   inkscape:version="1.2.1 (9c6d41e410, 2022-07-14)"
   xmlns:inkscape="http://www.inkscape.org/namespaces/inkscape"
   xmlns:sodipodi="http://sodipodi.sourceforge.net/DTD/sodipodi-0.dtd"
   xmlns="http://www.w3.org/2000/svg"
   xmlns:svg="http://www.w3.org/2000/svg"><defs
     id="defs6"><clipPath
       clipPathUnits="userSpaceOnUse"
       id="clipPath22"><path
         d="M 0,595.156 H 1161.583 V 0 H 0 Z"
         id="path20" /></clipPath></defs><sodipodi:namedview
     id="namedview4"
     pagecolor="#ffffff"
     bordercolor="#666666"
     borderopacity="1.0"
     inkscape:pageshadow="2"
     inkscape:pageopacity="0.0"
     inkscape:pagecheckerboard="0"
     showgrid="false"
     inkscape:zoom="0.6355959"
     inkscape:cx="1.5733267"
     inkscape:cy="314.66534"
     inkscape:window-width="1920"
     inkscape:window-height="1017"
     inkscape:window-x="1912"
     inkscape:window-y="-8"
     inkscape:window-maximized="1"
     inkscape:current-layer="g8"
     inkscape:showpageshadow="2"
     inkscape:deskcolor="#d1d1d1" /><g
     id="g8"
     inkscape:groupmode="layer"
     inkscape:label="Logo design 09"
     transform="matrix(1.3333333,0,0,-1.3333333,-906.61955,695.26834)"><path
       d="M 679.96468,137.45126 H 1063.9647 V 521.45127 H 679.96468 Z"
       style="fill:#005eb8;fill-opacity:1;fill-rule:nonzero;stroke:none;stroke-width:0.677953"
       id="path12" /><path
       d="m 870.32653,375.28555 v 0 l -31.24139,54.1086 v -0.001 z"
       style="fill:#ffffff;fill-opacity:1;fill-rule:nonzero;stroke:none;stroke-width:1.2277"
       id="path214" /><path
       d="M 901.56459,429.39329 988.23436,279.27824 901.56459,429.39452 Z"
       style="fill:#ffffff;fill-opacity:1;fill-rule:nonzero;stroke:none;stroke-width:1.2277"
       id="path218" /><path
       d="m 897.41397,419.3654 -25.44663,44.07949 -25.45276,-44.07826 25.45276,-44.08071 z"
       style="fill:#00305e;fill-opacity:1;fill-rule:nonzero;stroke:none;stroke-width:1.2277"
       id="path206" /><path
       d="M 840.72608,429.39329 754.05386,279.27824 h 62.48277 l 55.43084,96.00768 z"
       style="fill:#ffffff;fill-opacity:1;fill-rule:nonzero;stroke:none;stroke-width:1.2277"
       id="path210" /><path
       d="m 871.96784,375.28555 55.43083,-96.00768 h 62.47663 l -86.66976,150.11505 z"
       style="fill:#ffffff;fill-opacity:1;fill-rule:nonzero;stroke:none;stroke-width:1.2277"
       id="path222" /><path
       d="m 875.75886,342.65797 c -5.1097,-14.3359 -0.0319,-28.26298 22.29756,-37.68438 11.66565,-4.92064 17.63474,-15.79318 18.57885,-25.69584 h 10.76451 l -55.43207,96.00768 c 4.61985,-7.99972 9.60801,-19.00363 3.79115,-32.62746"
       style="fill:#00305e;fill-opacity:1;fill-rule:nonzero;stroke:none;stroke-width:1.2277"
       id="path226" /><path
       d="m 859.49412,313.15943 c -8.07584,14.33713 -1.31856,26.86094 7.91009,36.58558 9.22988,9.72341 4.56338,25.54115 4.56338,25.54115 l -55.43084,-96.00891 h 31.78035 c 14.25364,7.34904 17.48864,22.67447 11.17702,33.88218"
       style="fill:#00305e;fill-opacity:1;fill-rule:nonzero;stroke:none;stroke-width:1.2277"
       id="path230" /><g
       aria-label="MIRI&amp;BAZ"
       transform="scale(1,-1)"
       id="text1954"
       style="font-size:49.1082px;line-height:1.25;letter-spacing:7.16365px;fill:#ffffff;stroke-width:0.920778"><path
         d="m 765.77224,-258.64361 h 4.57991 v 34.86491 h -4.77174 v -26.11271 l 0.23979,1.53463 -8.58435,19.7344 h -3.40496 l -8.58434,-19.25483 0.23978,-2.0142 v 26.11271 h -4.77174 v -34.86491 h 4.57991 l 10.23887,23.01947 z"
         style="font-family:Bahnschrift;-inkscape-font-specification:Bahnschrift"
         id="path368" /><path
         d="m 791.03974,-223.7787 h -4.89163 v -34.86491 h 4.89163 z"
         style="font-family:Bahnschrift;-inkscape-font-specification:Bahnschrift"
         id="path365" /><path
         d="m 808.96979,-243.1774 h 11.8934 q 1.39076,0 2.46979,-0.6714 1.07904,-0.6714 1.65453,-1.89431 0.59946,-1.24689 0.59946,-2.85346 v 0 q 0,-1.60656 -0.59946,-2.82947 -0.57549,-1.24689 -1.65453,-1.91829 -1.05506,-0.6714 -2.46979,-0.6714 h -11.8934 v -4.65185 h 11.70157 q 3.0213,0 5.29927,1.24688 2.30195,1.24689 3.54884,3.54884 1.27086,2.27797 1.27086,5.27529 v 0 q 0,2.99733 -1.27086,5.29928 -1.27087,2.27797 -3.57282,3.52485 -2.27797,1.24689 -5.27529,1.24689 h -11.70157 z m -2.13409,-15.49018 h 4.89163 v 34.88888 h -4.89163 z m 11.62962,19.06299 4.86766,-1.10301 8.92005,16.9289 h -5.80283 z"
         style="font-family:Bahnschrift;-inkscape-font-specification:Bahnschrift"
         id="path362" /><path
         d="m 850.90243,-223.7787 h -4.89164 v -34.86491 h 4.89164 z"
         style="font-family:Bahnschrift;-inkscape-font-specification:Bahnschrift"
         id="path359" /><path
         d="m 874.17971,-237.63834 q -1.6785,-1.75044 -2.85345,-3.64475 -1.17496,-1.89431 -1.7984,-3.90851 -0.62344,-2.03819 -0.62344,-4.1483 0,-4.57992 2.44581,-7.07369 2.44582,-2.51776 6.90584,-2.51776 4.43605,0 6.85789,2.42184 2.44582,2.39786 2.44582,6.80993 v 0.47957 h -4.89164 v -0.47957 q 0,-2.1341 -1.15097,-3.28507 -1.15098,-1.17495 -3.2611,-1.17495 -2.13409,0 -3.30904,1.27086 -1.15098,1.24689 -1.15098,3.54884 0,1.39076 0.4556,2.87743 0.45559,1.48667 1.3428,2.94937 0.88721,1.46269 2.1341,2.78152 l 15.94577,16.95288 h -6.21046 z m 2.32593,-1.4627 q -2.99733,0 -4.62788,1.48668 -1.63054,1.48667 -1.63054,4.19626 0,2.66162 1.72646,4.1483 1.75044,1.46269 4.91561,1.46269 2.99733,0 5.13143,-1.60657 2.15807,-1.60656 3.26109,-4.65185 1.12699,-3.06926 1.12699,-7.38541 h 4.65185 q 0,5.70691 -1.79839,9.7593 -1.77442,4.0284 -5.20336,6.1625 -3.42894,2.11012 -8.24864,2.11012 -3.2611,0 -5.58702,-1.17495 -2.30195,-1.17496 -3.52486,-3.40497 -1.19893,-2.25399 -1.19893,-5.41916 0,-4.2682 2.34991,-6.83391 2.3499,-2.56571 6.64207,-2.97335 z"
         style="font-family:Bahnschrift;-inkscape-font-specification:Bahnschrift"
         id="path356" /><path
         d="m 908.75091,-228.31066 h 9.44757 q 3.71669,0 5.41917,-1.41474 1.70248,-1.41474 1.70248,-3.98045 v -0.0719 q 0,-1.77442 -0.62344,-3.04529 -0.59947,-1.27086 -1.91829,-1.94227 -1.31882,-0.69537 -3.38098,-0.69537 h -10.64651 v -4.41207 h 10.64651 q 2.70958,0 4.07636,-1.27087 1.39076,-1.27086 1.39076,-3.76464 v 0 q 0,-2.61367 -1.53463,-3.90851 -1.53463,-1.29485 -4.6039,-1.29485 h -9.9751 v -4.53196 h 10.86231 q 3.38099,0 5.65896,1.15098 2.27796,1.15097 3.40496,3.26109 1.12699,2.11012 1.12699,5.03551 v 0 q 0,1.79839 -0.69538,3.38098 -0.69538,1.55861 -2.13409,2.68561 -1.41474,1.10301 -3.52486,1.48667 2.11012,0.31172 3.64475,1.51065 1.53463,1.17496 2.3499,2.94937 0.81528,1.77442 0.81528,3.83658 v 0.0719 q 0,2.82947 -1.24689,4.98755 -1.24689,2.15807 -3.57281,3.33303 -2.32593,1.17495 -5.41917,1.17495 h -11.26995 z m -2.87743,-30.33295 h 4.86766 v 34.86491 h -4.86766 z"
         style="font-family:Bahnschrift;-inkscape-font-specification:Bahnschrift"
         id="path353" /><path
         d="m 953.51302,-258.64361 h 4.17228 l 12.85254,34.86491 h -5.2753 l -9.66338,-28.12692 -9.66338,28.12692 h -5.2753 z m -6.92982,22.56388 h 18.34364 v 4.65185 H 946.5832 Z"
         style="font-family:Bahnschrift;-inkscape-font-specification:Bahnschrift"
         id="path350" /><path
         d="m 1002.7352,-254.42337 -15.17851,25.99282 h 15.65801 v 4.65185 h -21.67664 v -4.22024 l 15.29836,-25.99281 h -14.86674 v -4.65186 h 20.76552 z"
         style="font-family:Bahnschrift;-inkscape-font-specification:Bahnschrift"
         id="path347" /></g><g
       aria-label="SCHOTTLAND"
       transform="scale(1,-1)"
       id="text4736"
       style="font-size:17.1879px;line-height:1.25;letter-spacing:7.16365px;fill:#ffffff;stroke-width:0.920778"><path
         d="m 792.1174,-195.45764 q -0.88122,0 -1.67011,-0.16785 -0.7889,-0.16785 -1.47709,-0.50355 -0.67979,-0.3357 -1.27566,-0.83925 v 0 l 1.06585,-1.30924 v 0 q 0.69658,0.60426 1.53583,0.90639 0.83925,0.30214 1.82118,0.30214 1.32602,0 2.05617,-0.48677 0.73015,-0.49516 0.73015,-1.39316 v -0.008 q 0,-0.63784 -0.3357,-1.00711 -0.32731,-0.37766 -0.85604,-0.5539 -0.52034,-0.18464 -1.3512,-0.33571 -0.0252,-0.008 -0.0587,-0.008 -0.0252,0 -0.0504,-0.008 l -0.12589,-0.0252 q -1.22531,-0.20981 -1.99742,-0.46998 -0.76372,-0.26856 -1.30923,-0.96514 -0.54552,-0.70497 -0.54552,-1.99742 v -0.008 q 0,-1.133 0.50355,-1.93029 0.51195,-0.80568 1.48548,-1.22531 0.97353,-0.41962 2.34152,-0.41962 0.65461,0 1.28405,0.14267 0.63784,0.14267 1.25049,0.42802 0.62105,0.27695 1.21692,0.70497 v 0 l -0.97354,1.35959 v 0 q -0.69658,-0.51194 -1.39316,-0.76372 -0.68818,-0.26017 -1.38476,-0.26017 -1.25049,0 -1.94707,0.50355 -0.68819,0.49516 -0.68819,1.40995 v 0.008 q 0,0.62944 0.35249,0.99032 0.36088,0.36088 0.88961,0.53712 0.53712,0.16785 1.48547,0.35249 0.0336,0.008 0.0588,0.0168 0.0336,0 0.0671,0.008 0.042,0.008 0.0923,0.0168 0.0504,0.008 0.0923,0.0168 1.10781,0.2266 1.84635,0.53712 0.74694,0.31052 1.2421,1.0071 0.50355,0.68819 0.50355,1.88832 v 0.0168 q 0,1.1162 -0.52873,1.91349 -0.52873,0.7889 -1.53583,1.20853 -0.99871,0.41123 -2.41705,0.41123 z"
         style="font-family:Bahnschrift;-inkscape-font-specification:Bahnschrift"
         id="path439" /><path
         d="m 809.85564,-195.45764 q -1.26727,0 -2.23242,-0.5623 -0.95674,-0.5623 -1.48547,-1.59458 -0.52873,-1.03228 -0.52873,-2.39187 v -3.34862 q 0,-1.35959 0.52873,-2.39187 0.52873,-1.03228 1.48547,-1.59458 0.96515,-0.57069 2.23242,-0.57069 1.04906,0 1.93028,0.45319 0.88121,0.44481 1.46869,1.26728 0.59587,0.82246 0.80568,1.9051 v 0 h -1.75403 v 0 q -0.15946,-0.57069 -0.53713,-1.0155 -0.36927,-0.45319 -0.87282,-0.69658 -0.50355,-0.24338 -1.04067,-0.24338 -0.74694,0 -1.30924,0.36088 -0.5623,0.36088 -0.87282,1.0155 -0.31052,0.64622 -0.31052,1.51065 v 3.34862 q 0,0.85604 0.31052,1.51066 0.31052,0.65461 0.87282,1.01549 0.5623,0.35249 1.30924,0.35249 0.54551,0 1.04067,-0.2266 0.50355,-0.2266 0.87282,-0.6714 0.37767,-0.44481 0.53713,-1.05746 v 0 h 1.75403 v 0 q -0.20981,1.08263 -0.80568,1.9051 -0.59587,0.82247 -1.47708,1.27567 -0.88122,0.4448 -1.92189,0.4448 z"
         style="font-family:Bahnschrift;-inkscape-font-specification:Bahnschrift"
         id="path436" /><path
         d="m 830.42216,-207.78626 h 1.71207 v 12.20273 h -1.71207 z m -6.93223,0 h 1.71207 v 12.20273 h -1.71207 z m 1.06585,5.37961 h 6.77277 v 1.62815 h -6.77277 z"
         style="font-family:Bahnschrift;-inkscape-font-specification:Bahnschrift"
         id="path433" /><path
         d="m 846.356,-195.45764 q -1.27567,0 -2.2492,-0.55391 -0.97353,-0.5623 -1.51065,-1.57779 -0.52873,-1.02389 -0.52873,-2.36669 v -3.45773 q 0,-1.3428 0.52873,-2.3583 0.53712,-1.02389 1.51065,-1.57779 0.97353,-0.5623 2.2492,-0.5623 1.27566,0 2.2492,0.5623 0.97353,0.5539 1.50226,1.57779 0.53712,1.0155 0.53712,2.3583 v 3.45773 q 0,1.3428 -0.53712,2.36669 -0.52873,1.01549 -1.50226,1.57779 -0.97354,0.55391 -2.2492,0.55391 z m 0,-1.6869 q 0.75533,0 1.32602,-0.3357 0.57908,-0.34409 0.88961,-0.96514 0.31891,-0.62944 0.31891,-1.45191 v -3.57521 q 0,-0.82247 -0.31891,-1.44352 -0.31053,-0.62944 -0.88961,-0.96514 -0.57069,-0.34409 -1.32602,-0.34409 -0.75533,0 -1.33441,0.34409 -0.5707,0.3357 -0.88961,0.96514 -0.31053,0.62105 -0.31053,1.44352 v 3.57521 q 0,0.82247 0.31053,1.45191 0.31891,0.62105 0.88961,0.96514 0.57908,0.3357 1.33441,0.3357 z"
         style="font-family:Bahnschrift;-inkscape-font-specification:Bahnschrift"
         id="path430" /><path
         d="m 862.34859,-206.78755 h 1.71207 v 11.20402 h -1.71207 z m -3.44933,-0.99871 h 8.61073 v 1.62815 h -8.61073 z"
         style="font-family:Bahnschrift;-inkscape-font-specification:Bahnschrift"
         id="path427" /><path
         d="m 879.04616,-206.78755 h 1.71207 v 11.20402 h -1.71207 z m -3.44933,-0.99871 h 8.61073 v 1.62815 h -8.61073 z"
         style="font-family:Bahnschrift;-inkscape-font-specification:Bahnschrift"
         id="path424" /><path
         d="m 893.04972,-207.78626 h 1.71207 v 12.20273 h -1.71207 z m 0.85604,10.57458 h 6.98258 v 1.62815 h -6.98258 z"
         style="font-family:Bahnschrift;-inkscape-font-specification:Bahnschrift"
         id="path421" /><path
         d="m 913.55749,-207.78626 h 1.4603 l 4.49839,12.20273 h -1.84635 l -3.38219,-9.84443 -3.38219,9.84443 h -1.84636 z m -2.42545,7.89737 h 6.42029 v 1.62815 h -6.42029 z"
         style="font-family:Bahnschrift;-inkscape-font-specification:Bahnschrift"
         id="path418" /><path
         d="m 928.52619,-207.78626 h 1.55262 l 5.96709,9.4332 -0.20143,0.2182 v -9.6514 h 1.6953 v 12.19434 h -1.56941 l -5.9503,-9.29053 0.20142,-0.21821 v 9.50874 h -1.69529 z"
         style="font-family:Bahnschrift;-inkscape-font-specification:Bahnschrift"
         id="path415" /><path
         d="m 948.88289,-197.21168 h 2.76114 q 1.3512,0 2.08974,-0.69658 0.74694,-0.70497 0.74694,-1.98063 v -3.59201 q 0,-1.27566 -0.74694,-1.97224 -0.73854,-0.70497 -2.08974,-0.70497 h -2.76114 v -1.62815 h 2.71079 q 1.46869,0 2.50936,0.51194 1.04068,0.51194 1.58619,1.49387 0.54552,0.98193 0.54552,2.36669 v 3.45773 q 0,1.38476 -0.54552,2.36669 -0.54551,0.98192 -1.59458,1.49387 -1.04067,0.51194 -2.50937,0.51194 h -2.70239 z m -1.15817,-10.57458 h 1.71208 v 12.20273 h -1.71208 z"
         style="font-family:Bahnschrift;-inkscape-font-specification:Bahnschrift"
         id="path412" /></g></g></svg>
