<?xml version="1.0" encoding="UTF-8" standalone="no"?>
<!-- Created with Inkscape (http://www.inkscape.org/) -->

<svg
   version="1.1"
   id="svg2"
   xml:space="preserve"
   width="314.42859"
   height="314.42899"
   viewBox="0 0 314.42858 314.42898"
   sodipodi:docname="logo-small.svg"
   inkscape:version="1.1 (c68e22c387, 2021-05-23)"
   xmlns:inkscape="http://www.inkscape.org/namespaces/inkscape"
   xmlns:sodipodi="http://sodipodi.sourceforge.net/DTD/sodipodi-0.dtd"
   xmlns="http://www.w3.org/2000/svg"
   xmlns:svg="http://www.w3.org/2000/svg"><defs
     id="defs6"><clipPath
       clipPathUnits="userSpaceOnUse"
       id="clipPath22"><path
         d="M 0,595.156 H 1161.583 V 0 H 0 Z"
         id="path20" /></clipPath></defs><sodipodi:namedview
     id="namedview4"
     pagecolor="#ffffff"
     bordercolor="#666666"
     borderopacity="1.0"
     inkscape:pageshadow="2"
     inkscape:pageopacity="0.0"
     inkscape:pagecheckerboard="0"
     showgrid="false"
     inkscape:zoom="0.6355959"
     inkscape:cx="-98.332919"
     inkscape:cy="236.78567"
     inkscape:window-width="1920"
     inkscape:window-height="1017"
     inkscape:window-x="-8"
     inkscape:window-y="-8"
     inkscape:window-maximized="1"
     inkscape:current-layer="g8" /><g
     id="g8"
     inkscape:groupmode="layer"
     inkscape:label="Logo design 09"
     transform="matrix(1.3333333,0,0,-1.3333333,-1005.4051,617.9265)"><g
       id="g7993"
       transform="translate(-1.2375691e-5,-25.827056)"><path
         d="m 870.32653,375.28555 v 0 l -31.24139,54.1086 v -0.001 z"
         style="fill:#ffffff;fill-opacity:1;fill-rule:nonzero;stroke:none;stroke-width:1.2277"
         id="path214" /><path
         d="M 901.56459,429.39329 988.23436,279.27824 901.56459,429.39452 Z"
         style="fill:#ffffff;fill-opacity:1;fill-rule:nonzero;stroke:none;stroke-width:1.2277"
         id="path218" /><path
         d="m 897.41397,419.3654 -25.44663,44.07949 -25.45276,-44.07826 25.45276,-44.08071 z"
         style="fill:#00305e;fill-opacity:1;fill-rule:nonzero;stroke:none;stroke-width:1.2277"
         id="path206" /><path
         d="M 840.72608,429.39329 754.05386,279.27824 h 62.48277 l 55.43084,96.00768 z"
         style="fill:#ffffff;fill-opacity:1;fill-rule:nonzero;stroke:none;stroke-width:1.2277"
         id="path210" /><path
         d="m 871.96784,375.28555 55.43083,-96.00768 h 62.47663 l -86.66976,150.11505 z"
         style="fill:#ffffff;fill-opacity:1;fill-rule:nonzero;stroke:none;stroke-width:1.2277"
         id="path222" /><path
         d="m 875.75886,342.65797 c -5.1097,-14.3359 -0.0319,-28.26298 22.29756,-37.68438 11.66565,-4.92064 17.63474,-15.79318 18.57885,-25.69584 h 10.76451 l -55.43207,96.00768 c 4.61985,-7.99972 9.60801,-19.00363 3.79115,-32.62746"
         style="fill:#00305e;fill-opacity:1;fill-rule:nonzero;stroke:none;stroke-width:1.2277"
         id="path226" /><path
         d="m 859.49412,313.15943 c -8.07584,14.33713 -1.31856,26.86094 7.91009,36.58558 9.22988,9.72341 4.56338,25.54115 4.56338,25.54115 l -55.43084,-96.00891 h 31.78035 c 14.25364,7.34904 17.48864,22.67447 11.17702,33.88218"
         style="fill:#00305e;fill-opacity:1;fill-rule:nonzero;stroke:none;stroke-width:1.2277"
         id="path230" /></g></g></svg>
